HIERARCHY
ROOT Hip
{
  OFFSET 0.0 0.0 0.0
  CHANNELS 6 Xposition Yposition Zposition Xrotation Yrotation Zrotation
  JOINT LowerSpine
  {
    OFFSET 0.0 0.061367 -0.03653
    CHANNELS 3 Xrotation Yrotation Zrotation
    JOINT MiddleSpine
    {
      OFFSET 0.0 0.056002 0.002633
      CHANNELS 3 Xrotation Yrotation Zrotation
      JOINT Chest
      {
        OFFSET 0.0 0.069296 -0.013882
        CHANNELS 3 Xrotation Yrotation Zrotation
        JOINT Neck
        {
          OFFSET 0.0 0.156156 -0.002923
          CHANNELS 3 Xrotation Yrotation Zrotation
          JOINT Head
          {
            OFFSET 0.0 0.088183 0.023986
            CHANNELS 3 Xrotation Yrotation Zrotation
            End Site
            {
              OFFSET 1e-06 0.123215 0.003678
            }
          }
        }
        JOINT LClavicle
        {
          OFFSET 0.014189 0.150698 0.046467
          CHANNELS 3 Xrotation Yrotation Zrotation
          JOINT LShoulder
          {
            OFFSET 0.082893 0.021616 -0.034976
            CHANNELS 3 Xrotation Yrotation Zrotation
            JOINT LForearm
            {
              OFFSET 0.195645 -0.000695 -0.001695
              CHANNELS 3 Xrotation Yrotation Zrotation
              JOINT LHand
              {
                OFFSET 0.163209 0.000474 -0.000977
                CHANNELS 3 Xrotation Yrotation Zrotation
                End Site
                {
                  OFFSET 0.0 0.006864 0.0
                }
              }
            }
          }
        }
        JOINT RClavicle
        {
          OFFSET -0.014189 0.150698 0.046467
          CHANNELS 3 Xrotation Yrotation Zrotation
          JOINT RShoulder
          {
            OFFSET -0.082908 0.021619 -0.034982
            CHANNELS 3 Xrotation Yrotation Zrotation
            JOINT RForearm
            {
              OFFSET -0.195645 -0.000695 -0.001695
              CHANNELS 3 Xrotation Yrotation Zrotation
              JOINT RHand
              {
                OFFSET -0.163209 0.000474 -0.000977
                CHANNELS 3 Xrotation Yrotation Zrotation
                End Site
                {
                  OFFSET 0.0 0.006864 0.0
                }
              }
            }
          }
        }
      }
    }
  }
  JOINT RThigh
  {
    OFFSET -0.072558 0.02774 -0.005953
    CHANNELS 3 Xrotation Yrotation Zrotation
    JOINT RShin
    {
      OFFSET -0.005253 -0.285537 0.0
      CHANNELS 3 Xrotation Yrotation Zrotation
      JOINT RFoot
      {
        OFFSET 0.0 -0.28038 0.0
        CHANNELS 3 Xrotation Yrotation Zrotation
        JOINT RToe
        {
          OFFSET 0.0 -0.030816 0.064441
          CHANNELS 3 Xrotation Yrotation Zrotation
          End Site
          {
            OFFSET 0.0 0.0 0.043231
          }
        }
      }
    }
  }
  JOINT LThigh
  {
    OFFSET 0.072557 0.027741 -0.005953
    CHANNELS 3 Xrotation Yrotation Zrotation
    JOINT LShin
    {
      OFFSET 0.005253 -0.285539 0.0
      CHANNELS 3 Xrotation Yrotation Zrotation
      JOINT LFoot
      {
        OFFSET 0.0 -0.28038 0.0
        CHANNELS 3 Xrotation Yrotation Zrotation
        JOINT LToe
        {
          OFFSET 0.0 -0.030816 0.064441
          CHANNELS 3 Xrotation Yrotation Zrotation
          End Site
          {
            OFFSET 0.0 0.0 0.043231
          }
        }
      }
    }
  }
}
MOTION
Frames: 15
Frame Time: 0.03333333333333333
-0.007358 0.579638 -0.027478 8.106156 1.734584 -0.556266 0.721292 -0.21427 -0.971459 0.512035 1.488694 -0.602671 1.115577 2.762392 -0.010861 0.13791 0.432859 -0.353767 0.010765 0.132307 -0.028667 1.739022 0.88533 -14.789248 14.398039 -28.67351 -60.537697 7.954079 -49.456158 -0.166203 0.184005 0.195565 -0.155455 1.003813 -3.477855 15.657032 4.566215 39.164646 75.136978 3.559157 37.514969 -2.053169 0.420963 -0.484393 0.021375 -18.180017 -2.591472 0.143182 19.762028 -4.949304 3.030878 -3.341546 0.106279 -0.432417 0.160609 0.558659 0.030343 -14.934301 6.566896 0.905964 13.821287 8.489471 -4.29389 -2.514324 0.584725 0.187897 0.041509 -0.135429 0.060516 
-0.008523 0.576403 -0.034269 2.10324 0.208403 1.556996 1.470067 -0.243473 0.227551 -0.023176 1.381494 0.221905 2.81732 5.179687 -2.34232 1.47566 0.642383 0.004037 0.051536 -0.368156 -0.035142 -0.23963 -1.292809 -14.835238 14.585808 -25.756426 -61.237625 10.44338 -50.069012 2.234992 0.127764 0.199636 -0.144167 -0.788109 -1.095486 15.081178 4.017134 35.867477 73.169876 4.37254 37.126629 0.804336 -0.179204 -0.13408 -0.009885 -12.767574 0.096873 0.878197 17.504259 -2.492444 0.385552 -2.869818 -0.650008 -0.926253 -0.110735 0.206239 0.113567 -3.295107 9.872908 -0.802589 5.605221 7.217283 -4.371224 -3.567108 0.374147 0.592282 0.130831 -0.225732 -0.067506 
-0.008601 0.574092 -0.034861 2.810327 0.158802 1.301705 1.33782 -0.335513 0.212056 0.042932 1.210724 0.320079 2.388894 4.686697 -2.739343 1.477581 0.556127 0.023396 0.036226 -0.351593 -0.02711 -0.491297 -1.280358 -14.638396 15.08398 -25.703661 -61.643215 11.009135 -50.063591 1.75807 0.102339 0.171769 -0.118902 -0.871831 -0.535012 15.029327 4.834 37.237953 72.378235 5.556217 39.658562 1.965546 -0.234442 -0.071094 -0.009168 -13.238935 -0.458112 1.130154 16.570522 -2.464936 0.261412 -2.490428 -0.571877 -0.812006 -0.129239 0.152467 0.103264 -4.561493 11.262838 -0.319662 6.028449 8.174726 -4.383827 -3.404523 0.258193 0.54059 0.112383 -0.185498 -0.066906 
-0.013663 0.575165 -0.029012 3.225605 0.894052 1.123603 1.156731 -0.381055 0.17014 0.245225 1.172932 0.289728 3.218954 4.494119 -2.646028 1.356554 0.524967 0.012078 0.029785 -0.305631 -0.0164 -0.379826 -1.148336 -14.832928 14.554228 -26.295603 -62.417915 10.507612 -49.389736 1.168307 0.088681 0.152067 -0.097996 -0.68439 -0.422745 15.057463 4.810167 37.214306 72.592545 5.036015 43.233501 2.784202 -0.230387 -0.053693 -0.00474 -12.974997 -1.021481 1.334358 16.006937 -2.608548 0.171195 -2.55986 -0.451052 -0.720991 -0.118908 0.138565 0.097393 -4.961981 11.475119 -0.234066 6.368282 8.492496 -4.151737 -3.361724 0.35183 0.545851 0.098464 -0.159165 -0.057221 
-0.017548 0.574403 -0.029052 3.356361 1.27383 0.735049 1.056178 -0.421802 0.168817 0.429244 1.19367 0.304779 4.003981 4.682228 -2.461406 1.250619 0.522987 -0.001806 0.028799 -0.291236 -0.013161 -0.238962 -1.151458 -15.05107 13.822202 -27.22625 -63.109356 9.760063 -47.76339 0.638168 0.087481 0.152899 -0.096071 -0.52193 -0.402441 14.953405 4.449588 37.270905 72.694046 4.449574 45.312664 3.066009 -0.221299 -0.064952 -0.003098 -12.399203 -1.1519 1.565182 16.09347 -2.702818 0.149286 -2.758036 -0.385299 -0.702395 -0.131658 0.161545 0.104649 -5.274867 11.332775 0.089697 6.555738 8.467935 -3.930077 -3.416108 0.42327 0.565473 0.098621 -0.157943 -0.055173 
-0.019958 0.573208 -0.03264 3.460175 1.637896 0.379731 1.017767 -0.451764 0.163343 0.560124 1.209085 0.331763 4.346383 4.893706 -2.200354 1.1895 0.524463 -0.011013 0.029103 -0.28756 -0.01336 -0.148772 -1.153915 -15.152828 13.179396 -28.086927 -63.613075 9.147968 -46.152367 0.268973 0.088219 0.156772 -0.098671 -0.425712 -0.410333 14.845908 4.153681 37.399883 72.65258 4.159554 46.214012 2.935336 -0.210732 -0.076302 -0.002126 -12.127747 -1.353863 1.758099 16.757406 -2.853546 0.228222 -2.982417 -0.372681 -0.718526 -0.14524 0.177057 0.110026 -5.80521 10.809215 0.388834 6.675822 8.09356 -3.712442 -3.459183 0.442204 0.553361 0.099405 -0.158343 -0.052827 
-0.019932 0.572348 -0.035457 3.553116 2.066699 0.165296 1.009807 -0.465866 0.159686 0.636522 1.226962 0.358476 4.396821 5.078722 -2.005354 1.14422 0.528416 -0.01725 0.030279 -0.285989 -0.014337 -0.116383 -1.175638 -15.13886 12.77567 -28.714724 -64.032883 8.775019 -45.069965 0.009877 0.090381 0.162531 -0.102288 -0.384675 -0.400531 14.753456 3.758714 37.697674 72.764885 4.062907 45.79166 2.684019 -0.197979 -0.090114 -0.002004 -12.295026 -1.315208 1.923451 17.628237 -2.874082 0.271233 -3.163096 -0.385414 -0.742949 -0.152459 0.189267 0.114182 -6.388664 10.161496 0.528091 6.692977 7.626348 -3.598212 -3.499754 0.427363 0.518201 0.101646 -0.162286 -0.051665 
-0.018685 0.571294 -0.037322 3.939899 2.580834 0.062929 1.025177 -0.467753 0.158294 0.656117 1.232595 0.36717 4.171845 5.159141 -1.947598 1.132528 0.537277 -0.021404 0.03226 -0.291084 -0.015624 -0.118495 -1.20879 -15.090527 12.64335 -28.979172 -64.274635 8.653971 -44.666283 -0.105701 0.093319 0.167918 -0.105194 -0.374905 -0.383894 14.699986 3.370043 37.960545 73.050079 4.122035 44.487282 2.50296 -0.193608 -0.096984 -0.002945 -13.07406 -1.274955 2.045021 18.575405 -2.89248 0.300129 -3.224307 -0.423663 -0.771591 -0.158789 0.19698 0.118037 -7.276254 9.755044 0.559397 6.803809 7.296058 -3.581854 -3.481423 0.393073 0.478139 0.10478 -0.167899 -0.0534 
-0.01737 0.569463 -0.038688 4.823116 3.085303 -0.070561 1.04871 -0.458691 0.164733 0.630134 1.229732 0.360858 3.763565 5.146173 -1.998407 1.139461 0.545328 -0.023393 0.034573 -0.301784 -0.017356 -0.13445 -1.222298 -15.038397 12.685011 -28.997368 -64.416061 8.676166 -44.740791 -0.137263 0.096779 0.172895 -0.107947 -0.379023 -0.380241 14.688694 3.038461 38.161129 73.40139 4.293551 42.573254 2.419706 -0.196565 -0.097569 -0.004811 -14.710543 -1.200536 2.228359 19.739536 -2.931255 0.317247 -3.236725 -0.47451 -0.79887 -0.164116 0.200134 0.121857 -8.81484 9.463653 0.615271 7.27652 7.096752 -3.662324 -3.432003 0.35961 0.441626 0.107876 -0.172555 -0.057471 
-0.01677 0.566473 -0.041153 6.421673 3.429691 -0.181139 1.067759 -0.450286 0.157991 0.550187 1.210941 0.338895 3.118065 5.051647 -2.103399 1.147854 0.557747 -0.029884 0.036605 -0.308025 -0.019838 -0.115699 -1.179748 -14.944694 12.828989 -28.918615 -64.528168 8.740681 -44.976429 -0.17739 0.099899 0.176887 -0.110758 -0.349939 -0.43603 14.704346 2.721404 38.34391 73.850632 4.447274 40.119183 2.33541 -0.19376 -0.097357 -0.006485 -17.446146 -1.009675 2.412674 21.205275 -2.995416 0.381165 -3.324846 -0.54311 -0.827184 -0.166195 0.203113 0.12316 -11.385192 9.221503 0.756231 8.268207 7.047328 -3.805288 -3.403114 0.33814 0.410365 0.109981 -0.174575 -0.061243 
-0.017068 0.562046 -0.045659 9.069766 3.585793 -0.186557 1.054391 -0.438431 0.149192 0.397496 1.155641 0.306911 2.001432 4.870285 -2.258002 1.141934 0.578107 -0.038831 0.037924 -0.309236 -0.022681 -0.044825 -1.078906 -14.858692 13.217943 -28.684223 -64.592598 8.811352 -45.186264 -0.309573 0.102582 0.1804 -0.113888 -0.268222 -0.551683 14.711678 2.689328 38.459438 74.271782 4.563889 37.343723 2.292511 -0.187269 -0.094502 -0.007749 -21.826546 -0.617056 2.65294 23.380011 -3.039558 0.474301 -3.549065 -0.630139 -0.861292 -0.166089 0.209419 0.121675 -15.581333 8.964682 0.960678 10.132351 7.093712 -3.98736 -3.384579 0.312772 0.389936 0.111529 -0.174977 -0.065045 
-0.017693 0.556056 -0.054278 13.204332 3.910743 -0.330528 0.952347 -0.430891 0.129761 0.197329 1.069801 0.243172 0.467843 4.499814 -2.571179 1.060705 0.589782 -0.05681 0.039517 -0.297269 -0.025102 0.099532 -0.8909 -14.778042 13.899428 -28.494471 -64.289497 9.048484 -45.500622 -0.422403 0.104247 0.184369 -0.1166 -0.121631 -0.727531 14.769635 3.155851 38.642658 74.454025 4.803372 34.727085 2.164778 -0.168486 -0.097822 -0.008492 -29.110628 -0.0472 2.927223 27.024096 -3.080032 0.583579 -3.750383 -0.736145 -0.904115 -0.164163 0.218407 0.117704 -22.486504 8.539947 1.296392 13.595796 7.280928 -4.337356 -3.321393 0.280351 0.364545 0.112834 -0.172857 -0.068295 
-0.018997 0.547972 -0.068165 18.943186 4.352967 -0.650096 0.764639 -0.424387 0.140142 -0.057477 0.954043 0.178214 -1.297546 3.977846 -2.971857 0.92848 0.604876 -0.085711 0.040921 -0.291811 -0.026778 0.288227 -0.666711 -14.76474 14.896588 -28.300972 -63.592785 9.655423 -45.905407 -0.429273 0.106533 0.190169 -0.120238 0.045693 -0.940355 14.895186 4.221684 38.729126 74.255775 5.130396 32.763271 2.14252 -0.153036 -0.101731 -0.010878 -40.165924 0.685294 3.408332 32.824787 -3.087542 0.599022 -3.956923 -0.867271 -0.978025 -0.163973 0.232 0.11589 -33.162281 7.810992 1.805891 19.92543 7.479861 -4.908835 -3.163292 0.237932 0.341312 0.115547 -0.172687 -0.07296 
-0.021255 0.537818 -0.083848 26.0639 4.741441 -0.950334 0.515285 -0.417661 0.133854 -0.326143 0.811584 0.126673 -3.142865 3.347817 -3.338407 0.739603 0.613377 -0.122646 0.041971 -0.279524 -0.027032 0.539545 -0.368738 -14.768654 15.995611 -28.319416 -62.742336 10.538989 -46.194382 -0.426267 0.108785 0.195394 -0.122735 0.256518 -1.19414 15.093854 5.662241 38.696976 73.707687 5.454145 31.231634 2.182162 -0.129715 -0.110438 -0.01342 -53.823006 1.428601 3.980829 39.975288 -3.157099 0.595592 -4.17968 -0.970774 -1.043535 -0.158778 0.251821 0.115043 -46.879829 6.779114 2.508215 29.108795 7.587395 -5.53547 -2.998778 0.234065 0.319622 0.116648 -0.17095 -0.077081 
-0.023696 0.525817 -0.095344 31.274387 5.365242 -0.996655 0.23224 -0.394236 0.177357 -0.522642 0.718291 0.115887 -4.169936 2.690443 -3.605382 0.505714 0.602771 -0.158218 0.040744 -0.269638 -0.026894 0.788486 -0.124669 -15.067527 17.164619 -28.553389 -61.590221 11.624812 -46.72501 -0.448568 0.108116 0.194324 -0.11807 0.448438 -1.440107 15.424447 7.471104 38.477474 72.866608 5.289134 30.33869 2.610483 -0.112269 -0.117058 -0.016073 -64.543007 2.131184 4.502709 46.300526 -3.107211 0.420169 -4.463613 -1.065149 -1.107238 -0.15094 0.264042 0.114423 -58.376938 5.558482 2.836807 38.325798 7.419793 -6.01234 -2.900252 0.28912 0.334466 0.113216 -0.166875 -0.080704 
